PathFileType	4	(X/Y/Z)	C:\Users\WrightLab\Desktop\Jo\P1.2Trial10.trc
DataRate	CameraRate	NumFrames	NumMarkers	Units	OrigDataRate	OrigDataStartFrame	OrigNumFrames
100.00	100.00	       8	19	mm	100.00	270	       539
Frame#	Time	Headset_Front			Headset_Back			Headset_Left			Headset_Right			Left_Shoulder			Right_Shoulder			Sternum			C7			Left Elbow			Right Elbow			Left Wrist			Right Wrist			Left ASIS			Right ASIS			S2			Left Knee			Right Knee			Left Ankle			Right Ankle			
		X1	Y1	Z1	X2	Y2	Z2	X3	Y3	Z3	X4	Y4	Z4	X5	Y5	Z5	X6	Y6	Z6	X7	Y7	Z7	X8	Y8	Z8	X9	Y9	Z9	X10	Y10	Z10	X11	Y11	Z11	X12	Y12	Z12	X13	Y13	Z13	X14	Y14	Z14	X15	Y15	Z15	X16	Y16	Z16	X17	Y17	Z17	X18	Y18	Z18	X19	Y19	Z19	

270	2.690	-135.88939	1417.03125	668.80005	-233.82234	1529.36035	402.52930	-89.25034	1472.91821	471.09811	-271.29047	1450.39355	609.84497	-18.66077	1265.23718	358.62762	-394.54575	1270.69702	562.35236	-149.91081	1203.93359	565.91986	-260.87109	1325.40186	363.28336	36.11856	983.71606	291.10675	-487.52982	1023.09253	537.54706	155.51462	786.62848	360.15808	-501.56943	767.81610	624.28271	-32.46107	899.53253	482.52066	-282.00525	880.96222	613.76990	-293.11279	926.50800	304.17175	-53.04931	453.53305	430.39688	-218.42238	503.25787	703.57550	-88.13200	107.12044	341.17178	-286.74341	167.49979	563.72614	
271	2.700	-131.64899	1415.89746	679.06671	-227.64474	1529.04651	412.07285	-83.47694	1473.19897	480.52795	-266.27383	1449.07886	619.07562	-12.06669	1265.74854	368.62741	-389.18021	1269.75000	570.25891	-144.16313	1203.96484	574.62964	-253.25021	1324.43616	371.81183	46.00283	983.58435	303.68237	-484.64777	1023.97711	542.43060	165.23320	787.84875	375.68649	-501.77182	767.95355	627.66876	-31.05026	897.66028	489.11597	-276.74445	880.83905	621.51074	-287.45538	926.16956	312.41455	-51.58981	452.30902	434.04480	-209.40862	506.32864	711.87604	-87.92169	106.95214	341.66766	-267.84155	163.24786	589.05591	
272	2.710	-127.65971	1414.63513	688.70758	-221.56569	1528.34961	421.96942	-77.82065	1472.31409	491.54938	-262.47543	1448.30457	628.44666	-4.95043	1265.35754	380.05093	-384.01511	1268.80481	577.56781	-139.18344	1202.74744	583.84949	-247.38232	1323.82556	380.57904	55.67317	984.04535	315.61481	-480.53094	1023.64337	547.55963	174.68010	788.78406	390.54700	-501.67184	767.57892	631.15930	-27.53509	895.84052	498.99597	-272.26352	881.09015	629.98962	-281.78311	925.72363	320.18088	-49.79662	450.93890	437.90173	-201.25713	508.58301	720.63763	-87.76759	107.20147	342.50858	-247.30099	157.03191	615.30408	
273	2.720	-124.27633	1413.09827	699.41742	-215.65373	1527.59595	431.77911	-72.29168	1471.11255	503.17163	-257.81244	1446.04932	637.48700	1.54045	1265.14087	390.25638	-378.44577	1267.01624	584.96912	-133.65794	1201.50964	593.50433	-240.21957	1322.25391	389.72119	65.94817	984.14990	327.27911	-476.12125	1023.26532	552.95331	182.70430	788.21741	405.98166	-501.75494	767.10358	635.18256	-24.38161	895.23688	508.86880	-266.72855	879.84406	638.42859	-276.42548	925.01935	328.70169	-47.34046	449.48190	441.95593	-193.31448	510.01193	728.85303	-87.61084	107.01623	342.80554	-228.05841	152.84702	642.12140	
274	2.730	-119.98907	1411.38330	710.06293	-209.74762	1526.65112	441.85672	-67.29124	1470.29211	513.43927	-253.61969	1444.62134	646.86017	8.53054	1263.72217	401.24777	-372.77945	1265.22595	593.23706	-128.06534	1199.73669	603.03302	-233.57518	1321.12170	399.02417	75.32017	983.16846	338.88531	-472.17526	1022.71960	558.43597	192.65379	788.77179	420.63672	-501.56436	766.40771	638.71960	-20.28787	893.56030	517.83954	-261.94168	878.64667	646.80829	-270.66190	923.57770	337.95148	-44.72786	448.39798	446.32205	-185.82330	511.43585	737.13232	-87.17940	106.63724	343.31815	-208.78244	149.97127	668.85529	
275	2.740	-115.97993	1409.48816	719.98962	-203.10123	1525.43567	452.03711	-62.10384	1469.49072	524.89166	-248.91135	1442.59521	656.53711	15.65964	1262.41272	412.21365	-367.39325	1263.34143	601.11780	-123.31191	1198.12476	612.11908	-226.97974	1319.39502	407.52011	83.87383	981.62683	351.48706	-467.39804	1021.36072	564.64374	200.95969	787.88977	436.38461	-501.62930	765.59290	642.58643	-16.31213	891.21344	526.09393	-257.71198	877.32233	655.94659	-266.26794	922.47510	346.32559	-41.31618	447.27722	451.17950	-176.60924	511.52090	743.28528	-87.27813	106.23258	343.66656	-190.08549	148.25706	695.06647	
276	2.750	-112.21846	1407.76245	730.79926	-198.21654	1524.22742	462.01495	-56.73497	1468.03479	536.91699	-244.44113	1440.27490	666.18915	22.14831	1260.75989	423.68484	-362.02469	1260.79468	610.74548	-117.54523	1195.85046	622.21442	-220.69740	1317.63464	417.49213	92.22407	981.51514	362.47678	-463.17572	1020.02673	570.45215	209.66426	786.96729	451.04355	-501.55798	764.24786	646.77972	-12.44869	889.18707	534.35846	-252.95705	875.00134	664.76501	-261.58252	920.98553	354.91562	-38.13547	446.07947	455.36197	-169.44484	510.95306	750.57935	-87.63073	105.03664	343.58664	-172.22250	147.18854	721.31433	
277	2.760	-108.89973	1405.25891	741.64130	-193.12556	1522.99695	473.12744	-51.58839	1466.82800	547.27527	-240.45554	1437.88025	675.61731	28.84237	1258.87122	436.09256	-357.93869	1260.09436	619.90814	-112.52116	1193.52930	632.59442	-214.62805	1316.48279	427.13522	101.86498	978.91504	375.20602	-459.15924	1018.53253	576.91895	217.51935	786.00690	465.75336	-501.61749	763.14697	651.31482	-7.67067	886.39270	543.16742	-247.46304	871.75189	674.00653	-256.99530	919.72705	363.06152	-34.55187	443.89539	461.47217	-162.19745	509.41211	757.76453	-87.41822	104.94368	344.19037	-155.01704	147.97855	747.95172	
